<mxfile host="app.diagrams.net" modified="2023-11-15T08:01:19.301Z" agent="Mozilla/5.0 (Windows NT 10.0; Win64; x64) AppleWebKit/537.36 (KHTML, like Gecko) Chrome/120.0.0.0 Safari/537.36 Edg/120.0.0.0" etag="YUeaDqUWk-6CYudnru5w" version="22.1.1" type="github">
  <diagram name="User" id="NeqM0X-mX-ZQRLsJGkjQ">
    <mxGraphModel dx="1426" dy="789" grid="1" gridSize="10" guides="1" tooltips="1" connect="1" arrows="1" fold="1" page="1" pageScale="1" pageWidth="850" pageHeight="1100" math="0" shadow="0">
      <root>
        <mxCell id="0" />
        <mxCell id="1" parent="0" />
        <mxCell id="e6pvx2k11rM0_vtDr1QI-1" value="Người dùng" style="shape=umlActor;verticalLabelPosition=bottom;verticalAlign=top;html=1;outlineConnect=0;" vertex="1" parent="1">
          <mxGeometry x="80" y="485" width="30" height="60" as="geometry" />
        </mxCell>
        <mxCell id="e6pvx2k11rM0_vtDr1QI-2" value="Đăng nhập" style="ellipse;whiteSpace=wrap;html=1;" vertex="1" parent="1">
          <mxGeometry x="220" y="470" width="140" height="70" as="geometry" />
        </mxCell>
        <mxCell id="e6pvx2k11rM0_vtDr1QI-3" value="&amp;lt;&amp;lt;include&amp;gt;&amp;gt;" style="edgeStyle=none;html=1;endArrow=open;verticalAlign=bottom;dashed=1;labelBackgroundColor=none;rounded=0;exitX=1;exitY=0.5;exitDx=0;exitDy=0;entryX=0;entryY=0.5;entryDx=0;entryDy=0;" edge="1" parent="1" source="e6pvx2k11rM0_vtDr1QI-2" target="e6pvx2k11rM0_vtDr1QI-4">
          <mxGeometry width="160" relative="1" as="geometry">
            <mxPoint x="340" y="410" as="sourcePoint" />
            <mxPoint x="490" y="350" as="targetPoint" />
          </mxGeometry>
        </mxCell>
        <mxCell id="e6pvx2k11rM0_vtDr1QI-4" value="Tổ chức sự kiện" style="ellipse;whiteSpace=wrap;html=1;" vertex="1" parent="1">
          <mxGeometry x="425" y="315" width="140" height="70" as="geometry" />
        </mxCell>
        <mxCell id="e6pvx2k11rM0_vtDr1QI-5" value="Xem sự kiện đã đăng ký sắp diễn ra" style="ellipse;whiteSpace=wrap;html=1;" vertex="1" parent="1">
          <mxGeometry x="425" y="400" width="140" height="70" as="geometry" />
        </mxCell>
        <mxCell id="e6pvx2k11rM0_vtDr1QI-6" value="&amp;lt;&amp;lt;include&amp;gt;&amp;gt;" style="edgeStyle=none;html=1;endArrow=open;verticalAlign=bottom;dashed=1;labelBackgroundColor=none;rounded=0;exitX=1;exitY=0.5;exitDx=0;exitDy=0;entryX=0;entryY=0.5;entryDx=0;entryDy=0;" edge="1" parent="1" source="e6pvx2k11rM0_vtDr1QI-2" target="e6pvx2k11rM0_vtDr1QI-5">
          <mxGeometry width="160" relative="1" as="geometry">
            <mxPoint x="360" y="360" as="sourcePoint" />
            <mxPoint x="435" y="360" as="targetPoint" />
          </mxGeometry>
        </mxCell>
        <mxCell id="e6pvx2k11rM0_vtDr1QI-7" value="Xem các sự kiện đăng ký đã diễn ra" style="ellipse;whiteSpace=wrap;html=1;" vertex="1" parent="1">
          <mxGeometry x="425" y="480" width="140" height="70" as="geometry" />
        </mxCell>
        <mxCell id="e6pvx2k11rM0_vtDr1QI-8" value="&amp;lt;&amp;lt;include&amp;gt;&amp;gt;" style="edgeStyle=none;html=1;endArrow=open;verticalAlign=bottom;dashed=1;labelBackgroundColor=none;rounded=0;exitX=1;exitY=0.5;exitDx=0;exitDy=0;entryX=0;entryY=0.5;entryDx=0;entryDy=0;" edge="1" parent="1" source="e6pvx2k11rM0_vtDr1QI-2" target="e6pvx2k11rM0_vtDr1QI-7">
          <mxGeometry width="160" relative="1" as="geometry">
            <mxPoint x="360" y="360" as="sourcePoint" />
            <mxPoint x="435" y="445" as="targetPoint" />
          </mxGeometry>
        </mxCell>
        <mxCell id="e6pvx2k11rM0_vtDr1QI-9" value="Cập nhật hồ sơ cá nhân" style="ellipse;whiteSpace=wrap;html=1;" vertex="1" parent="1">
          <mxGeometry x="425" y="560" width="140" height="70" as="geometry" />
        </mxCell>
        <mxCell id="e6pvx2k11rM0_vtDr1QI-10" value="&amp;lt;&amp;lt;include&amp;gt;&amp;gt;" style="edgeStyle=none;html=1;endArrow=open;verticalAlign=bottom;dashed=1;labelBackgroundColor=none;rounded=0;exitX=1;exitY=1;exitDx=0;exitDy=0;entryX=0;entryY=0.5;entryDx=0;entryDy=0;" edge="1" parent="1" source="e6pvx2k11rM0_vtDr1QI-2" target="e6pvx2k11rM0_vtDr1QI-9">
          <mxGeometry width="160" relative="1" as="geometry">
            <mxPoint x="360" y="360" as="sourcePoint" />
            <mxPoint x="435" y="525" as="targetPoint" />
          </mxGeometry>
        </mxCell>
        <mxCell id="e6pvx2k11rM0_vtDr1QI-11" value="Đăng ký tham dự sự kiện" style="ellipse;whiteSpace=wrap;html=1;" vertex="1" parent="1">
          <mxGeometry x="425" y="640" width="140" height="70" as="geometry" />
        </mxCell>
        <mxCell id="e6pvx2k11rM0_vtDr1QI-12" value="&amp;lt;&amp;lt;include&amp;gt;&amp;gt;" style="edgeStyle=none;html=1;endArrow=open;verticalAlign=bottom;dashed=1;labelBackgroundColor=none;rounded=0;exitX=1;exitY=1;exitDx=0;exitDy=0;entryX=0;entryY=0.5;entryDx=0;entryDy=0;" edge="1" parent="1" source="e6pvx2k11rM0_vtDr1QI-2" target="e6pvx2k11rM0_vtDr1QI-11">
          <mxGeometry width="160" relative="1" as="geometry">
            <mxPoint x="339" y="385" as="sourcePoint" />
            <mxPoint x="435" y="605" as="targetPoint" />
          </mxGeometry>
        </mxCell>
        <mxCell id="e6pvx2k11rM0_vtDr1QI-13" value="Checkin tham gia sự kiện" style="ellipse;whiteSpace=wrap;html=1;" vertex="1" parent="1">
          <mxGeometry x="640" y="720" width="140" height="70" as="geometry" />
        </mxCell>
        <mxCell id="e6pvx2k11rM0_vtDr1QI-14" value="&amp;lt;&amp;lt;include&amp;gt;&amp;gt;" style="edgeStyle=none;html=1;endArrow=open;verticalAlign=bottom;dashed=1;labelBackgroundColor=none;rounded=0;exitX=1;exitY=1;exitDx=0;exitDy=0;entryX=0;entryY=0.5;entryDx=0;entryDy=0;" edge="1" parent="1" source="e6pvx2k11rM0_vtDr1QI-11" target="e6pvx2k11rM0_vtDr1QI-13">
          <mxGeometry width="160" relative="1" as="geometry">
            <mxPoint x="339" y="385" as="sourcePoint" />
            <mxPoint x="435" y="685" as="targetPoint" />
          </mxGeometry>
        </mxCell>
        <mxCell id="e6pvx2k11rM0_vtDr1QI-15" value="Nhận xét sự kiện" style="ellipse;whiteSpace=wrap;html=1;" vertex="1" parent="1">
          <mxGeometry x="425" y="720" width="140" height="70" as="geometry" />
        </mxCell>
        <mxCell id="e6pvx2k11rM0_vtDr1QI-16" value="&amp;lt;&amp;lt;include&amp;gt;&amp;gt;" style="edgeStyle=none;html=1;endArrow=open;verticalAlign=bottom;dashed=1;labelBackgroundColor=none;rounded=0;exitX=1;exitY=1;exitDx=0;exitDy=0;entryX=0;entryY=0.5;entryDx=0;entryDy=0;" edge="1" parent="1" source="e6pvx2k11rM0_vtDr1QI-2" target="e6pvx2k11rM0_vtDr1QI-15">
          <mxGeometry width="160" relative="1" as="geometry">
            <mxPoint x="280" y="470" as="sourcePoint" />
            <mxPoint x="435" y="770" as="targetPoint" />
          </mxGeometry>
        </mxCell>
        <mxCell id="e6pvx2k11rM0_vtDr1QI-17" value="" style="endArrow=none;dashed=1;html=1;rounded=0;entryX=0;entryY=0.5;entryDx=0;entryDy=0;exitX=1;exitY=0.3333333333333333;exitDx=0;exitDy=0;exitPerimeter=0;" edge="1" parent="1" source="e6pvx2k11rM0_vtDr1QI-1" target="e6pvx2k11rM0_vtDr1QI-2">
          <mxGeometry width="50" height="50" relative="1" as="geometry">
            <mxPoint x="180" y="670" as="sourcePoint" />
            <mxPoint x="230" y="620" as="targetPoint" />
          </mxGeometry>
        </mxCell>
        <mxCell id="e6pvx2k11rM0_vtDr1QI-18" value="Đăng ký" style="ellipse;whiteSpace=wrap;html=1;" vertex="1" parent="1">
          <mxGeometry x="220" y="360" width="140" height="70" as="geometry" />
        </mxCell>
        <mxCell id="e6pvx2k11rM0_vtDr1QI-19" value="" style="endArrow=none;dashed=1;html=1;rounded=0;entryX=0;entryY=0.5;entryDx=0;entryDy=0;exitX=1;exitY=0.3333333333333333;exitDx=0;exitDy=0;exitPerimeter=0;" edge="1" parent="1" source="e6pvx2k11rM0_vtDr1QI-1" target="e6pvx2k11rM0_vtDr1QI-18">
          <mxGeometry width="50" height="50" relative="1" as="geometry">
            <mxPoint x="180" y="360" as="sourcePoint" />
            <mxPoint x="220" y="360" as="targetPoint" />
          </mxGeometry>
        </mxCell>
        <mxCell id="e6pvx2k11rM0_vtDr1QI-20" value="Thanh toán vé cho sự kiện (nếu là sự kiện bán vé)" style="ellipse;whiteSpace=wrap;html=1;" vertex="1" parent="1">
          <mxGeometry x="640" y="560" width="140" height="70" as="geometry" />
        </mxCell>
        <mxCell id="e6pvx2k11rM0_vtDr1QI-21" value="Quản lý, chỉnh sửa thông tin trang sự kiện" style="ellipse;whiteSpace=wrap;html=1;" vertex="1" parent="1">
          <mxGeometry x="640" y="360" width="140" height="70" as="geometry" />
        </mxCell>
        <mxCell id="e6pvx2k11rM0_vtDr1QI-22" value="&amp;lt;&amp;lt;include&amp;gt;&amp;gt;" style="edgeStyle=none;html=1;endArrow=open;verticalAlign=bottom;dashed=1;labelBackgroundColor=none;rounded=0;exitX=0.5;exitY=1;exitDx=0;exitDy=0;entryX=0.5;entryY=0;entryDx=0;entryDy=0;" edge="1" parent="1" source="e6pvx2k11rM0_vtDr1QI-18" target="e6pvx2k11rM0_vtDr1QI-2">
          <mxGeometry width="160" relative="1" as="geometry">
            <mxPoint x="370" y="515" as="sourcePoint" />
            <mxPoint x="430" y="275" as="targetPoint" />
          </mxGeometry>
        </mxCell>
        <mxCell id="e6pvx2k11rM0_vtDr1QI-23" value="TÌm kiếm sự kiện" style="ellipse;whiteSpace=wrap;html=1;" vertex="1" parent="1">
          <mxGeometry x="160" y="290" width="140" height="70" as="geometry" />
        </mxCell>
        <mxCell id="e6pvx2k11rM0_vtDr1QI-24" value="Xem chi tiết sự kiện" style="ellipse;whiteSpace=wrap;html=1;" vertex="1" parent="1">
          <mxGeometry x="160" y="540" width="140" height="70" as="geometry" />
        </mxCell>
        <mxCell id="e6pvx2k11rM0_vtDr1QI-25" value="" style="endArrow=none;dashed=1;html=1;rounded=0;entryX=1;entryY=0.3333333333333333;entryDx=0;entryDy=0;exitX=0;exitY=0.5;exitDx=0;exitDy=0;entryPerimeter=0;" edge="1" parent="1" source="e6pvx2k11rM0_vtDr1QI-23" target="e6pvx2k11rM0_vtDr1QI-1">
          <mxGeometry width="50" height="50" relative="1" as="geometry">
            <mxPoint x="170" y="515" as="sourcePoint" />
            <mxPoint x="230" y="375" as="targetPoint" />
          </mxGeometry>
        </mxCell>
        <mxCell id="e6pvx2k11rM0_vtDr1QI-26" value="" style="endArrow=none;dashed=1;html=1;rounded=0;entryX=1;entryY=0.3333333333333333;entryDx=0;entryDy=0;exitX=0;exitY=0.5;exitDx=0;exitDy=0;entryPerimeter=0;" edge="1" parent="1" source="e6pvx2k11rM0_vtDr1QI-24" target="e6pvx2k11rM0_vtDr1QI-1">
          <mxGeometry width="50" height="50" relative="1" as="geometry">
            <mxPoint x="190" y="680" as="sourcePoint" />
            <mxPoint x="242" y="540" as="targetPoint" />
          </mxGeometry>
        </mxCell>
        <mxCell id="e6pvx2k11rM0_vtDr1QI-27" value="Chia sẻ sự kiện" style="ellipse;whiteSpace=wrap;html=1;" vertex="1" parent="1">
          <mxGeometry x="160" y="620" width="140" height="70" as="geometry" />
        </mxCell>
        <mxCell id="e6pvx2k11rM0_vtDr1QI-28" value="" style="endArrow=none;dashed=1;html=1;rounded=0;entryX=1;entryY=0.3333333333333333;entryDx=0;entryDy=0;exitX=0;exitY=0.5;exitDx=0;exitDy=0;entryPerimeter=0;" edge="1" parent="1" source="e6pvx2k11rM0_vtDr1QI-27" target="e6pvx2k11rM0_vtDr1QI-1">
          <mxGeometry width="50" height="50" relative="1" as="geometry">
            <mxPoint x="200" y="670" as="sourcePoint" />
            <mxPoint x="251" y="540" as="targetPoint" />
          </mxGeometry>
        </mxCell>
        <mxCell id="e6pvx2k11rM0_vtDr1QI-29" value="Thống kê danh sách người đăng ký tham gia" style="ellipse;whiteSpace=wrap;html=1;" vertex="1" parent="1">
          <mxGeometry x="640" y="280" width="140" height="70" as="geometry" />
        </mxCell>
        <mxCell id="e6pvx2k11rM0_vtDr1QI-30" value="&amp;lt;&amp;lt;extend&amp;gt;&amp;gt;" style="edgeStyle=none;html=1;startArrow=open;endArrow=none;startSize=12;verticalAlign=bottom;dashed=1;labelBackgroundColor=none;rounded=0;exitX=1;exitY=0.5;exitDx=0;exitDy=0;entryX=0;entryY=0.5;entryDx=0;entryDy=0;" edge="1" parent="1" source="e6pvx2k11rM0_vtDr1QI-4" target="e6pvx2k11rM0_vtDr1QI-21">
          <mxGeometry width="160" relative="1" as="geometry">
            <mxPoint x="640" y="420" as="sourcePoint" />
            <mxPoint x="800" y="420" as="targetPoint" />
          </mxGeometry>
        </mxCell>
        <mxCell id="e6pvx2k11rM0_vtDr1QI-31" value="&amp;lt;&amp;lt;extend&amp;gt;&amp;gt;" style="edgeStyle=none;html=1;startArrow=open;endArrow=none;startSize=12;verticalAlign=bottom;dashed=1;labelBackgroundColor=none;rounded=0;entryX=0;entryY=0.5;entryDx=0;entryDy=0;exitX=1;exitY=0;exitDx=0;exitDy=0;" edge="1" parent="1" source="e6pvx2k11rM0_vtDr1QI-4" target="e6pvx2k11rM0_vtDr1QI-29">
          <mxGeometry width="160" relative="1" as="geometry">
            <mxPoint x="340" y="410" as="sourcePoint" />
            <mxPoint x="500" y="410" as="targetPoint" />
          </mxGeometry>
        </mxCell>
        <mxCell id="e6pvx2k11rM0_vtDr1QI-32" value="&amp;lt;&amp;lt;extend&amp;gt;&amp;gt;" style="edgeStyle=none;html=1;startArrow=open;endArrow=none;startSize=12;verticalAlign=bottom;dashed=1;labelBackgroundColor=none;rounded=0;exitX=1;exitY=1;exitDx=0;exitDy=0;entryX=0;entryY=0.5;entryDx=0;entryDy=0;" edge="1" parent="1" source="e6pvx2k11rM0_vtDr1QI-4" target="e6pvx2k11rM0_vtDr1QI-33">
          <mxGeometry width="160" relative="1" as="geometry">
            <mxPoint x="650" y="530" as="sourcePoint" />
            <mxPoint x="810" y="530" as="targetPoint" />
          </mxGeometry>
        </mxCell>
        <mxCell id="e6pvx2k11rM0_vtDr1QI-33" value="Hủy sự kiện" style="ellipse;whiteSpace=wrap;html=1;" vertex="1" parent="1">
          <mxGeometry x="640" y="440" width="140" height="70" as="geometry" />
        </mxCell>
        <mxCell id="e6pvx2k11rM0_vtDr1QI-34" value="Mời người dùng khác trở thành host của sự kiện" style="ellipse;whiteSpace=wrap;html=1;" vertex="1" parent="1">
          <mxGeometry x="640" y="200" width="140" height="70" as="geometry" />
        </mxCell>
        <mxCell id="e6pvx2k11rM0_vtDr1QI-35" value="&amp;lt;&amp;lt;extend&amp;gt;&amp;gt;" style="edgeStyle=none;html=1;startArrow=open;endArrow=none;startSize=12;verticalAlign=bottom;dashed=1;labelBackgroundColor=none;rounded=0;entryX=0;entryY=0.5;entryDx=0;entryDy=0;exitX=0.5;exitY=0;exitDx=0;exitDy=0;" edge="1" parent="1" source="e6pvx2k11rM0_vtDr1QI-4" target="e6pvx2k11rM0_vtDr1QI-34">
          <mxGeometry width="160" relative="1" as="geometry">
            <mxPoint x="544" y="245" as="sourcePoint" />
            <mxPoint x="500" y="330" as="targetPoint" />
          </mxGeometry>
        </mxCell>
        <mxCell id="e6pvx2k11rM0_vtDr1QI-36" value="&amp;lt;&amp;lt;extend&amp;gt;&amp;gt;" style="edgeStyle=none;html=1;startArrow=open;endArrow=none;startSize=12;verticalAlign=bottom;dashed=1;labelBackgroundColor=none;rounded=0;exitX=1;exitY=0.5;exitDx=0;exitDy=0;entryX=0;entryY=0.5;entryDx=0;entryDy=0;" edge="1" parent="1" source="e6pvx2k11rM0_vtDr1QI-11" target="e6pvx2k11rM0_vtDr1QI-37">
          <mxGeometry width="160" relative="1" as="geometry">
            <mxPoint x="600" y="630" as="sourcePoint" />
            <mxPoint x="866" y="785" as="targetPoint" />
          </mxGeometry>
        </mxCell>
        <mxCell id="e6pvx2k11rM0_vtDr1QI-37" value="Hủy đăng ký" style="ellipse;whiteSpace=wrap;html=1;" vertex="1" parent="1">
          <mxGeometry x="640" y="640" width="140" height="70" as="geometry" />
        </mxCell>
        <mxCell id="e6pvx2k11rM0_vtDr1QI-38" value="&amp;lt;&amp;lt;extend&amp;gt;&amp;gt;" style="edgeStyle=none;html=1;startArrow=open;endArrow=none;startSize=12;verticalAlign=bottom;dashed=1;labelBackgroundColor=none;rounded=0;exitX=1;exitY=0;exitDx=0;exitDy=0;entryX=0;entryY=0.5;entryDx=0;entryDy=0;" edge="1" parent="1" source="e6pvx2k11rM0_vtDr1QI-11" target="e6pvx2k11rM0_vtDr1QI-20">
          <mxGeometry width="160" relative="1" as="geometry">
            <mxPoint x="575" y="685" as="sourcePoint" />
            <mxPoint x="650" y="685" as="targetPoint" />
          </mxGeometry>
        </mxCell>
        <mxCell id="e6pvx2k11rM0_vtDr1QI-39" value="Báo cáo sự kiện quy phạm tiêu chuẩn" style="ellipse;whiteSpace=wrap;html=1;" vertex="1" parent="1">
          <mxGeometry x="425" y="800" width="140" height="70" as="geometry" />
        </mxCell>
        <mxCell id="e6pvx2k11rM0_vtDr1QI-40" value="&amp;lt;&amp;lt;include&amp;gt;&amp;gt;" style="edgeStyle=none;html=1;endArrow=open;verticalAlign=bottom;dashed=1;labelBackgroundColor=none;rounded=0;exitX=0.5;exitY=1;exitDx=0;exitDy=0;entryX=0;entryY=0.5;entryDx=0;entryDy=0;" edge="1" parent="1" source="e6pvx2k11rM0_vtDr1QI-2" target="e6pvx2k11rM0_vtDr1QI-39">
          <mxGeometry width="160" relative="1" as="geometry">
            <mxPoint x="349" y="540" as="sourcePoint" />
            <mxPoint x="435" y="765" as="targetPoint" />
          </mxGeometry>
        </mxCell>
      </root>
    </mxGraphModel>
  </diagram>
</mxfile>
